<svg xmlns="http://www.w3.org/2000/svg" viewBox="0 0 1400 820" role="img" aria-labelledby="title desc">
  <title id="title">Montage trépointe Goodyear 360</title>
  <desc id="desc">Schéma technique premium du montage Goodyear 360 degrés avec trépointe qui fait le tour complet.</desc>
  <defs>
    <linearGradient id="bg" x1="0" y1="0" x2="1" y2="1">
      <stop offset="0%" stop-color="#fdf5ef"/>
      <stop offset="100%" stop-color="#f3ddd0"/>
    </linearGradient>
    <linearGradient id="panel" x1="0" y1="0" x2="1" y2="1">
      <stop offset="0%" stop-color="#fffdfa"/>
      <stop offset="100%" stop-color="#fff6ef"/>
    </linearGradient>
    <linearGradient id="upper" x1="0" y1="0" x2="1" y2="0">
      <stop offset="0%" stop-color="#f6dccb"/>
      <stop offset="100%" stop-color="#eabda5"/>
    </linearGradient>
    <filter id="shadow" x="-20%" y="-20%" width="140%" height="160%">
      <feDropShadow dx="0" dy="8" stdDeviation="8" flood-color="#6a241d" flood-opacity="0.2"/>
    </filter>
  </defs>

  <rect width="1400" height="820" fill="url(#bg)"/>
  <circle cx="1270" cy="70" r="180" fill="#ffffff" opacity="0.3"/>
  <circle cx="150" cy="760" r="230" fill="#ffffff" opacity="0.22"/>

  <text x="72" y="88" font-size="52" fill="#7a1d18" font-family="'Oswald','Arial Narrow',sans-serif" letter-spacing="1.2">GOODYEAR 360°</text>
  <text x="72" y="124" font-size="24" fill="#8d4e42" font-family="'Nunito Sans','Segoe UI',sans-serif">Trépointe tour complet: structure renforcée, maintien et durabilité maximale pour usage soutenu.</text>

  <rect x="56" y="150" width="1288" height="622" rx="28" fill="url(#panel)" stroke="#e6c8b8" stroke-width="3"/>

  <g transform="translate(92 188)">
    <rect x="0" y="0" width="804" height="546" rx="22" fill="#fffaf6" stroke="#ecd6c8" stroke-width="2"/>

    <text x="26" y="44" font-size="24" fill="#7a1d18" font-family="'Oswald','Arial Narrow',sans-serif">COUPE DE MONTAGE</text>

    <g transform="translate(30 106)" filter="url(#shadow)">
      <path d="M0 238c0-36 32-60 67-60h462c106 0 196 34 245 92H0z" fill="url(#upper)"/>
      <path d="M46 200h582" stroke="#d1ad98" stroke-width="22" stroke-linecap="round"/>

      <path d="M28 224c0-12 10-22 22-22h596c12 0 22 10 22 22v6H28z" fill="#ab2a22"/>
      <path d="M36 258h666" stroke="#3f3531" stroke-width="36" stroke-linecap="round"/>

      <path d="M36 224h620" stroke="#fff3ec" stroke-width="5" stroke-linecap="round" stroke-dasharray="3 11"/>
      <path d="M48 258h632" stroke="#f5c7b1" stroke-width="5" stroke-linecap="round" stroke-dasharray="3 11"/>

      <circle cx="656" cy="227" r="17" fill="#ab2a22"/>
      <circle cx="656" cy="227" r="7" fill="#fff9f3"/>
      <rect x="544" y="240" width="114" height="82" rx="12" fill="#5b4d46"/>
    </g>

    <g fill="#6c4a3f" font-family="'Nunito Sans','Segoe UI',sans-serif" font-size="20">
      <text x="56" y="470">1. Trépointe continue jusqu'au talon</text>
      <text x="56" y="502">2. Couture externe sur 360° complet</text>
      <text x="56" y="534">3. Base idéale pour semelles épaisses</text>
    </g>

    <g stroke="#8f3b31" stroke-width="3" fill="none" stroke-linecap="round">
      <path d="M520 462h156"/>
      <path d="M556 495h142"/>
      <path d="M592 528h120"/>
    </g>
  </g>

  <g transform="translate(926 188)">
    <rect x="0" y="0" width="382" height="546" rx="22" fill="#fff8f2" stroke="#ecd2c1" stroke-width="2"/>

    <text x="24" y="46" font-size="24" fill="#7a1d18" font-family="'Oswald','Arial Narrow',sans-serif">SPÉCIFICITÉS</text>

    <g font-family="'Nunito Sans','Segoe UI',sans-serif" font-size="21" fill="#65463d">
      <circle cx="26" cy="100" r="6" fill="#ab2a22"/>
      <text x="42" y="107">Welt fermé et continu à l'arrière</text>

      <circle cx="26" cy="148" r="6" fill="#ab2a22"/>
      <text x="42" y="155">Plateforme plus stable et durable</text>

      <circle cx="26" cy="196" r="6" fill="#ab2a22"/>
      <text x="42" y="203">Excellent maintien latéral</text>

      <circle cx="26" cy="244" r="6" fill="#ab2a22"/>
      <text x="42" y="251">Parfait pour usage intensif</text>
    </g>

    <rect x="22" y="296" width="338" height="220" rx="16" fill="#fff" stroke="#e8cec0"/>
    <text x="42" y="336" font-size="20" fill="#8a4a3f" font-family="'Oswald','Arial Narrow',sans-serif">IDÉAL POUR</text>
    <text x="42" y="374" font-size="19" fill="#6a4a3e" font-family="'Nunito Sans','Segoe UI',sans-serif">• Derbies robustes et longwings</text>
    <text x="42" y="406" font-size="19" fill="#6a4a3e" font-family="'Nunito Sans','Segoe UI',sans-serif">• Boots urbaines quatre saisons</text>
    <text x="42" y="438" font-size="19" fill="#6a4a3e" font-family="'Nunito Sans','Segoe UI',sans-serif">• Porteurs à forte fréquence</text>

    <rect x="22" y="474" width="170" height="32" rx="16" fill="#f5e0d3"/>
    <text x="40" y="496" font-size="16" fill="#8a4a3f" font-family="'Nunito Sans','Segoe UI',sans-serif">Ressemelage: facile</text>
    <rect x="206" y="474" width="154" height="32" rx="16" fill="#f5e0d3"/>
    <text x="224" y="496" font-size="16" fill="#8a4a3f" font-family="'Nunito Sans','Segoe UI',sans-serif">Rigidité: élevée</text>
  </g>
</svg>
