<svg xmlns="http://www.w3.org/2000/svg" viewBox="0 0 640 400" role="img" aria-labelledby="t d">
  <title id="t">Botte deconstruite</title>
  <desc id="d">Illustration placeholder d'une botte en pieces.</desc>
  <defs>
    <linearGradient id="bg" x1="0" y1="0" x2="1" y2="1">
      <stop offset="0%" stop-color="#f4ecdf"/>
      <stop offset="100%" stop-color="#e5dccf"/>
    </linearGradient>
  </defs>
  <rect width="640" height="400" fill="url(#bg)"/>
  <text x="28" y="44" fill="#6b2f1d" font-size="32" font-family="Arial, sans-serif" font-weight="700">Botte deconstruite</text>
  <g transform="translate(80 110)">
    <path d="M44 154 C130 34, 290 36, 390 124 L390 168 L44 168 Z" fill="#9f5e42" opacity="0.35"/>
    <rect x="38" y="186" width="378" height="22" rx="10" fill="#59504b" opacity="0.35"/>

    <path d="M100 30 C150 -10, 250 -10, 298 24 L268 52 C228 24, 172 24, 132 56 Z" fill="#9b5b3e"/>
    <path d="M340 68 L390 122 L360 136 L316 90 Z" fill="#84533e"/>
    <rect x="54" y="190" width="282" height="18" rx="9" fill="#4d433f"/>
    <rect x="360" y="176" width="62" height="34" rx="8" fill="#2f2724"/>
    <path d="M176 88 L214 86" stroke="#ffe6cf" stroke-width="4" stroke-dasharray="7 6"/>
    <circle cx="454" cy="58" r="16" fill="#c96d57"/>
    <circle cx="494" cy="88" r="12" fill="#c96d57"/>
    <rect x="438" y="122" width="74" height="12" rx="6" fill="#7f6d63"/>
  </g>
</svg>
