<svg xmlns="http://www.w3.org/2000/svg" viewBox="0 0 640 400" role="img" aria-labelledby="t d">
  <title id="t">Botte brisee</title>
  <desc id="d">Illustration placeholder d'une botte endommagee.</desc>
  <defs>
    <linearGradient id="bg" x1="0" y1="0" x2="1" y2="1">
      <stop offset="0%" stop-color="#f9e9df"/>
      <stop offset="100%" stop-color="#f5d8ca"/>
    </linearGradient>
    <linearGradient id="boot" x1="0" y1="0" x2="1" y2="1">
      <stop offset="0%" stop-color="#9b5b3e"/>
      <stop offset="100%" stop-color="#6f3925"/>
    </linearGradient>
  </defs>
  <rect width="640" height="400" fill="url(#bg)"/>
  <text x="28" y="44" fill="#7a1d18" font-size="32" font-family="Arial, sans-serif" font-weight="700">Botte brisee</text>
  <g transform="translate(90 110)">
    <path d="M50 140 C120 20, 300 20, 420 110 L420 170 L50 170 Z" fill="url(#boot)"/>
    <path d="M70 170 L430 170 L422 194 L50 194 Z" fill="#4d433f"/>
    <path d="M350 150 L420 150 L422 204 L344 204 Z" fill="#2f2724"/>
    <path d="M160 142 L220 138" stroke="#ffd9c4" stroke-width="4" stroke-dasharray="7 6"/>
    <path d="M210 140 L240 152 L274 134 L304 148" stroke="#f6b499" stroke-width="5" fill="none"/>
    <path d="M58 192 L150 186 L250 195" stroke="#cc6a55" stroke-width="5"/>
  </g>
</svg>
