<?xml version="1.0" encoding="UTF-8" standalone="no"?>
<!-- Created with Inkscape (http://www.inkscape.org/) -->
<svg
   xmlns:svg="http://www.w3.org/2000/svg"
   xmlns="http://www.w3.org/2000/svg"
   version="1.0"
   width="188.76117"
   height="127.00133"
   id="svg2">
  <defs
     id="defs5" />
  <path
     d="M 0,127.00132 L 0,112.7783 L 15.039394,112.7783 C 16.808054,112.7783 15.445474,111.14502 12.168112,108.17905 C 10.07612,106.28582 8.5561,103.67133 8.790288,102.36907 C 9.942224,95.963465 12.48026,91.000853 14.60651,90.996635 C 15.907382,90.994053 20.047896,88.362835 23.807651,85.149479 C 31.097573,78.918993 43.147336,75.001327 55.020846,75.001327 C 59.726152,75.001327 66.508632,72.533939 74.208905,68.020933 C 80.75953,64.181717 88.299053,60.493415 90.963397,59.824707 C 98.756554,57.868749 100.63795,54.002911 99.412405,42.463909 C 98.801232,36.709489 97.683681,30.433912 96.928951,28.518184 C 95.986582,26.12617 96.71813,24.619246 99.264226,23.707716 C 101.30336,22.977686 104.23611,21.395098 105.78146,20.190856 C 107.38488,18.941364 117.11729,17.999126 128.4501,17.9962 C 148.18612,17.991104 148.34374,17.9522 153.92167,11.709419 C 157.00863,8.2545086 160.32654,4.0121496 161.29481,2.2819566 C 162.44509,0.2265146 164.60055,-0.4597554 167.51351,0.3020006 C 173.25781,1.8041696 173.12877,3.3193546 166.59529,11.083961 C 161.51379,17.122982 161.2476,18.469834 161.74279,35.635803 C 162.16835,50.388063 163.06297,54.916339 166.50763,59.753925 C 169.95617,64.596947 170.76939,68.726441 170.86013,81.855533 C 170.92151,90.735719 170.20599,101.32615 169.27007,105.38981 L 167.56841,112.7783 L 188.76117,112.7783 L 188.76117,127.00132 L 0,127.00132 z"
     id="path2402"
     style="fill:#000000" />
  <path
     d="M 95.618996,111.63257 C 98.806984,110.37824 91.898816,109.76094 73.618996,109.6667 C 48.327607,109.5363 46.216484,109.20769 32.128625,103.20843 C 27.478057,101.228 18.19191,95.833131 15.319884,95.071909 L 13.275554,99.311537 C 16.482942,101.39722 27.259746,108.08561 34.971735,111.50203 C 41.582611,114.43065 47.139105,114.90843 66.971734,114.25355 C 80.171734,113.81768 93.063002,112.63824 95.618996,111.63257 z"
     id="path2400"
     style="fill:#694d42;fill-opacity:1" />
  <path
     d="M 161.26281,106.36676 C 159.01661,105.9167 151.98695,106.00133 145.99912,106.00133 C 139.59514,106.00133 133.71426,106.36572 131.47327,106.87893 L 130.16684,112.73775 C 132.2186,113.14886 138.23058,112.85367 145.30832,112.5884 C 151.47271,112.35735 158.67507,111.81617 161.04983,111.27232 L 161.26281,106.36676 z"
     id="path2398"
     style="fill:#694d42;fill-opacity:1" />
  <path
     d="M 63.971734,101.24557 C 63.971734,93.784415 58.664948,81.141799 54.931778,79.709247 C 47.46736,76.844881 21.971734,87.325999 21.971734,93.258949 C 21.971734,95.915199 39.067239,103.43097 48.971734,105.12908 C 63.457574,107.61264 63.971734,107.47953 63.971734,101.24557 z"
     id="path2396"
     style="fill:#8c300c;fill-opacity:1" />
  <path
     d="M 96.797477,103.98954 C 107.70163,102.34602 127.27663,101.00133 140.29748,101.00133 L 163.97173,101.00133 L 163.97173,86.154777 C 163.97173,73.236369 163.32238,70.536513 158.97173,65.366065 C 154.40536,59.939241 153.97173,57.774161 153.97173,40.401381 L 153.97173,21.378858 L 133.47173,22.349644 C 111.5124,23.389538 107.71398,24.008218 108.3239,26.445674 C 108.538,27.301282 108.00436,34.532796 107.13803,42.515705 L 105.56288,57.030083 L 84.601958,67.370407 C 66.422672,76.338509 63.787028,78.260835 64.741148,81.856029 C 65.34621,84.135943 66.948351,90.726327 68.301458,96.501327 C 71.125588,108.55457 69.443201,108.11247 96.797477,103.98954 z"
     id="path2394"
     style="fill:#9e360e;fill-opacity:1" />
  <path
     d="M 97.971734,67.001327 C 97.971734,65.901327 99.321734,65.001327 100.97173,65.001327 C 102.62173,65.001327 103.97173,65.901327 103.97173,67.001327 C 103.97173,68.101327 102.62173,69.001327 100.97173,69.001327 C 99.321734,69.001327 97.971734,68.101327 97.971734,67.001327 z"
     id="path2392"
     style="fill:#000000" />
  <path
     d="M 109.07944,61.175591 C 106.99885,57.809139 109.94183,54.171421 112.59747,56.827063 C 115.14023,59.998121 112.08759,62.977447 109.07944,61.175591 z"
     id="path2390"
     style="fill:#000000" />
  <path
     d="M 110.97173,45.001327 C 111.65157,43.901327 113.05469,43.001327 114.08977,43.001327 C 115.12485,43.001327 115.97173,43.901327 115.97173,45.001327 C 115.97173,46.101327 114.56862,47.940329 112.8537,47.940329 C 111.13878,47.940329 110.2919,46.101327 110.97173,45.001327 z"
     id="path2388"
     style="fill:#000000" />
  <path
     d="M 111.97173,33.001326 C 111.97173,31.901326 112.87173,31.001326 113.97173,31.001326 C 115.07173,31.001326 115.97173,31.901326 115.97173,33.001326 C 115.97173,34.101326 115.07173,35.001326 113.97173,35.001326 C 112.87173,35.001326 111.97173,34.101326 111.97173,33.001326 z"
     id="path2384"
     style="fill:#000000" />
</svg>
