<svg xmlns="http://www.w3.org/2000/svg" viewBox="0 0 1400 860" role="img" aria-labelledby="title desc">
  <title id="title">Atelier de cordonnerie</title>
  <desc id="desc">Workshop scene showing local cobbler tools and repaired shoes.</desc>
  <defs>
    <linearGradient id="wall" x1="0" y1="0" x2="0" y2="1">
      <stop offset="0%" stop-color="#fff8f2"/>
      <stop offset="100%" stop-color="#fbe8dd"/>
    </linearGradient>
    <linearGradient id="floor" x1="0" y1="0" x2="1" y2="1">
      <stop offset="0%" stop-color="#d29174"/>
      <stop offset="100%" stop-color="#ab2a22"/>
    </linearGradient>
  </defs>

  <rect width="1400" height="860" rx="40" fill="#7a1d18"/>
  <rect x="70" y="70" width="1260" height="720" rx="28" fill="url(#wall)"/>

  <rect x="70" y="560" width="1260" height="230" fill="url(#floor)"/>

  <rect x="180" y="360" width="1040" height="220" rx="20" fill="#7a4a37"/>
  <rect x="214" y="392" width="972" height="30" rx="12" fill="#915945"/>

  <g transform="translate(260 230)">
    <rect x="0" y="0" width="180" height="120" rx="14" fill="#fff8f3" stroke="#e8c9bc" stroke-width="4"/>
    <path d="M34 78c0-11 10-18 22-18h37c9 0 18-2 26-7l17-11c9-6 19 4 15 14l-3 8c14 3 25 15 25 31H34c0-7 4-13 10-14h81c-3-4-8-6-15-6H56c-12 0-22 2-22 3z" fill="#ab2a22"/>
  </g>

  <g transform="translate(510 224)">
    <rect x="0" y="0" width="180" height="126" rx="14" fill="#fff8f3" stroke="#e8c9bc" stroke-width="4"/>
    <path d="M36 84h108" stroke="#ab2a22" stroke-width="7" stroke-linecap="round"/>
    <path d="M54 42l38 44 42-56" stroke="#7a1d18" stroke-width="7" fill="none" stroke-linecap="round" stroke-linejoin="round"/>
  </g>

  <g transform="translate(760 224)">
    <rect x="0" y="0" width="250" height="126" rx="14" fill="#fff8f3" stroke="#e8c9bc" stroke-width="4"/>
    <text x="20" y="54" font-size="34" fill="#7a1d18" font-family="'Oswald', 'Arial Narrow', sans-serif">CORDONNERIE</text>
    <text x="20" y="97" font-size="28" fill="#5a4a43" font-family="'Nunito Sans', 'Segoe UI', sans-serif">REPARATION LOCALE</text>
  </g>

  <g transform="translate(320 410)">
    <path d="M0 95c0-16 14-27 30-27h102c19 0 37-5 53-15l40-26c17-12 38 8 30 27l-10 25c34 6 61 34 61 68H0c0-12 7-22 17-25h206c-6-8-15-12-28-12H30c-16 0-30 3-30 5z" fill="#fff2ea"/>
    <path d="M34 106h181" stroke="#ab2a22" stroke-width="5" stroke-linecap="round" stroke-dasharray="2 11"/>
    <path d="M20 150h284" stroke="#5a4a43" stroke-width="12" stroke-linecap="round"/>
  </g>

  <g transform="translate(740 408)">
    <ellipse cx="110" cy="180" rx="110" ry="24" fill="rgba(0,0,0,0.2)"/>
    <rect x="72" y="18" width="76" height="168" rx="34" fill="#7a1d18"/>
    <path d="M46 172l40-130c7-20 30-30 49-23l17 6c19 7 30 29 23 48l-42 129z" fill="#ffd8c4"/>
    <circle cx="111" cy="45" r="11" fill="#ffd8c4"/>
  </g>

  <g transform="translate(1010 430)">
    <ellipse cx="100" cy="150" rx="94" ry="22" fill="rgba(0,0,0,0.18)"/>
    <path d="M10 133c0-23 19-42 42-42h98c28 0 50 19 56 42H10z" fill="#5a4a43"/>
    <path d="M29 129h158" stroke="#fff1e8" stroke-width="5" stroke-dasharray="3 10" stroke-linecap="round"/>
    <path d="M69 76l30-42 34 42" stroke="#ab2a22" stroke-width="8" fill="none" stroke-linecap="round" stroke-linejoin="round"/>
  </g>
</svg>
