<svg xmlns="http://www.w3.org/2000/svg" viewBox="0 0 256 256" role="img" aria-labelledby="title desc">
  <title id="title">Chaussures Durables Mark</title>
  <desc id="desc">Stylized mark with stitched shoe to represent durable and repairable footwear.</desc>
  <defs>
    <linearGradient id="bg" x1="0" y1="0" x2="1" y2="1">
      <stop offset="0%" stop-color="#7a1d18"/>
      <stop offset="100%" stop-color="#e25745"/>
    </linearGradient>
    <linearGradient id="shoe" x1="0" y1="0" x2="1" y2="0">
      <stop offset="0%" stop-color="#fff5ed"/>
      <stop offset="100%" stop-color="#ffe2d4"/>
    </linearGradient>
  </defs>

  <rect width="256" height="256" rx="52" fill="url(#bg)"/>

  <path d="M44 156c0-13 13-20 28-20h37c10 0 20-3 29-9l18-12c8-5 17 3 14 12l-4 11c19 4 34 20 34 40H44c0-9 6-16 14-18h117c-3-5-8-8-16-8H72c-15 0-28 2-28 4z" fill="url(#shoe)"/>
  <path d="M72 151h85" stroke="#ab2a22" stroke-width="4" stroke-linecap="round" stroke-dasharray="2 10"/>
  <path d="M56 178h144" stroke="#fef7f3" stroke-width="6" stroke-linecap="round"/>
  <path d="M183 87l10 8-22 28-13-1z" fill="#ffcfb8"/>
  <circle cx="194" cy="93" r="6" fill="#fff5ed"/>
</svg>
