<svg xmlns="http://www.w3.org/2000/svg" viewBox="0 0 1180 280" role="img" aria-labelledby="title desc">
  <title id="title">Logo Chaussures Durables</title>
  <desc id="desc">Logo horizontal Chaussures Durables avec emblème et signature artisanale.</desc>
  <defs>
    <linearGradient id="bg" x1="0" y1="0" x2="1" y2="1">
      <stop offset="0%" stop-color="#fff9f4"/>
      <stop offset="100%" stop-color="#f4dfd2"/>
    </linearGradient>
    <linearGradient id="medallion" x1="0" y1="0" x2="1" y2="1">
      <stop offset="0%" stop-color="#7a1d18"/>
      <stop offset="100%" stop-color="#be3e2f"/>
    </linearGradient>
    <linearGradient id="core" x1="0" y1="0" x2="1" y2="1">
      <stop offset="0%" stop-color="#fff8f3"/>
      <stop offset="100%" stop-color="#f6e1d3"/>
    </linearGradient>
  </defs>

  <rect width="1180" height="280" rx="36" fill="url(#bg)"/>
  <rect x="2" y="2" width="1176" height="276" rx="34" fill="none" stroke="#e6c9ba" stroke-width="3"/>

  <g transform="translate(36 24)">
    <circle cx="116" cy="116" r="98" fill="url(#medallion)"/>
    <circle cx="116" cy="116" r="76" fill="url(#core)"/>

    <path d="M58 132c0-17 14-28 31-28h45c22 0 39-8 54-24l16 12c-13 22-34 34-66 34H94c-8 0-13 2-16 6z" fill="#ab2a22"/>
    <path d="M58 142h136" stroke="#4b3e39" stroke-width="14" stroke-linecap="round"/>
    <path d="M67 132h108" stroke="#fff6f1" stroke-width="4" stroke-linecap="round" stroke-dasharray="2 8"/>
    <rect x="148" y="132" width="24" height="22" rx="6" fill="#5a4a43"/>
  </g>

  <g transform="translate(286 74)">
    <text x="0" y="68" fill="#7a1d18" font-size="74" font-family="'Oswald','Arial Narrow',sans-serif" letter-spacing="1.4" font-weight="700">CHAUSSURES DURABLES</text>
    <text x="3" y="118" fill="#6b4b40" font-size="28" font-family="'Nunito Sans','Segoe UI',sans-serif" letter-spacing="0.7">RÉPARER • ENTRETENIR • TRANSMETTRE</text>
    <line x1="3" y1="138" x2="760" y2="138" stroke="#debeae" stroke-width="3"/>
  </g>
</svg>
